<?xml version="1.0" encoding="iso-8859-1"?>
<!-- Generator: Adobe Illustrator 16.0.0, SVG Export Plug-In . SVG Version: 6.00 Build 0)  -->
<!DOCTYPE svg PUBLIC "-//W3C//DTD SVG 1.1//EN" "http://www.w3.org/Graphics/SVG/1.1/DTD/svg11.dtd">
<svg version="1.1" id="oldFemale_svg" xmlns="http://www.w3.org/2000/svg" xmlns:xlink="http://www.w3.org/1999/xlink" x="0px" y="0px"
	 width="558.613px" height="558.612px" viewBox="0 0 558.613 558.612" style="enable-background:new 0 0 558.613 558.612;"
	 xml:space="preserve">
<g>
	<g>
		<path d="M456.543,264.197l-22.08-87.712c0,0-1.348-7.081-8.07-11.078s-74.641-44.418-74.641-44.418
			c-2.921-1.74-6.067-2.759-9.237-3.156c-0.641-0.134-1.3-0.21-1.979-0.21h-10.438c0.077-0.167,0.163-0.339,0.325-0.53
			c8.349-9.582,13.417-22.094,13.417-35.802c0-18.446-9.166-34.741-23.18-44.609c-1.028-0.722-1.692-2.276-1.559-3.524
			c0.114-1.047,0.172-2.108,0.172-3.184C319.274,13.416,305.853,0,289.3,0c-16.553,0-29.974,13.421-29.974,29.974
			c0,1.076,0.057,2.137,0.172,3.184c0.134,1.248-0.531,2.802-1.559,3.524c-14.019,9.868-23.18,26.163-23.18,44.609
			c0,13.708,5.063,26.22,13.417,35.802c0.167,0.191,0.249,0.363,0.325,0.53H234.09c-1.74,0-3.352,0.502-4.757,1.311
			c-1.511,0.521-2.988,1.205-4.417,2.051l-3.146,1.875l-48.773,29.022c0,0-20.201,11.805-24.327,14.478
			c-4.786,3.099-6.053,8.492-6.053,8.492l-17.925,71.212c-11.537,5.24-16.825,13.961-16.825,13.961
			c-6.598,10.284-6.526,22.5-6.526,22.5v262.443c0,0,0.315,10.456,11.456,10.456c11.141,0,11.972-9.601,11.972-9.601
			s0.172-256.872,0.431-259.956c0.004-0.091,0.009-0.187,0.019-0.282c3.103,3.624,7.287,6.378,12.264,7.631
			c1.96,0.497,3.921,0.727,5.857,0.727c10.346,0,19.732-6.794,22.811-17.055c0.904,2.51,1.521,6.607,2.678,12.843
			c1.716,9.256,22.458,12.354,21.946-3.931c-0.517-16.285-6.34-22.95-13.708-32.804c-0.961-1.281-2.175-2.458-3.595-3.528
			c-0.091-0.067-0.163-0.172-0.249-0.253l11.618-46.158l0.76-3.022l1.578-0.937l28.41-16.906l-6.612,40.617l-9.562,58.738
			l-22.615,138.904c0,5.283,4.284,9.562,9.562,9.562h30.323h3.944v104.69c0,3.696,0.909,7.148,2.4,10.271
			c3.849,8.042,11.991,13.636,21.506,13.636c10.801,0,19.818-7.205,22.783-17.035c0.66-2.19,1.124-4.466,1.124-6.871V430.016h38.849
			v104.69c0,0.272,0.071,0.53,0.081,0.803c0.435,12.824,10.896,23.104,23.825,23.104c8.056,0,15.142-4.012,19.474-10.117
			c2.769-3.901,4.433-8.64,4.433-13.789v-104.69h5.962h28.506c5.283,0,9.562-4.279,9.562-9.562l-13.87-82.997l-26.149-156.462
			l31.996,19.039l19.092,75.835c1.669,6.632,5.972,11.882,11.494,14.984c3.515,1.975,7.512,3.094,11.666,3.094
			c1.932,0,3.897-0.234,5.857-0.727C452.001,289.997,459.766,277.001,456.543,264.197z"/>
	</g>
</g>
<g>
</g>
<g>
</g>
<g>
</g>
<g>
</g>
<g>
</g>
<g>
</g>
<g>
</g>
<g>
</g>
<g>
</g>
<g>
</g>
<g>
</g>
<g>
</g>
<g>
</g>
<g>
</g>
<g>
</g>
</svg>
